<svg version="1.0" xmlns="http://www.w3.org/2000/svg"
 width="512.000000pt" height="512.000000pt" viewBox="0 0 512.000000 512.000000"
 preserveAspectRatio="xMidYMid meet">

<g transform="translate(0.000000,512.000000) scale(0.100000,-0.100000)"
fill="#000000" stroke="none">
<path d="M1365 4549 c-142 -20 -338 -101 -452 -186 -420 -314 -550 -850 -318
-1313 173 -345 539 -570 928 -570 224 0 483 93 644 229 l68 59 572 -572 573
-571 57 58 58 57 -574 574 -574 574 30 43 c143 209 207 483 172 735 -20 144
-90 324 -172 443 -45 65 -171 195 -241 248 -210 157 -503 230 -771 192z m317
-163 c420 -82 718 -442 718 -866 0 -486 -394 -880 -880 -880 -486 0 -880 394
-880 880 0 420 295 780 710 865 88 18 242 18 332 1z"/>
<path d="M1444 4070 c-122 -18 -227 -71 -315 -159 -200 -200 -218 -522 -41
-739 l35 -44 198 198 199 199 0 277 c0 216 -3 278 -12 277 -7 -1 -36 -5 -64
-9z"/>
<path d="M3921 1533 c0 -787 2 -874 17 -934 47 -178 199 -317 382 -350 251
-44 503 133 549 385 11 60 17 1756 6 1756 -3 0 -56 -34 -119 -76 l-114 -76
-120 80 -119 80 -121 -80 -120 -80 -121 81 -121 81 1 -867z"/>
<path d="M1600 1200 l0 -480 240 0 240 0 0 480 0 480 -240 0 -240 0 0 -480z"/>
<path d="M640 1040 l0 -320 240 0 240 0 0 320 0 320 -240 0 -240 0 0 -320z"/>
</g>
</svg>